<svg clip-rule="evenodd" fill-rule="evenodd" height="512" fill="white" image-rendering="optimizeQuality" shape-rendering="geometricPrecision" text-rendering="geometricPrecision" viewBox="0 0 6.82666 6.82666" width="512" xmlns="http://www.w3.org/2000/svg">
    <g id="Layer_x0020_1">
        <g id="_209566144">
            <path id="_209566240" d="m.766579.557142v4.62283c0 .14539.0770079.273134.192362.34463-.055374-.0987283-.0712362-.220732-.0430748-.344087l.726736-3.18924c.0661339-.290669.357087-.527031.648575-.527031l3.07066-.00000787.00001181-.305008h-2.8355c-.035248 0-.0660866-.023185-.0756417-.0568937l-.155685-.545189h-1.52844z" />
            <path id="_209566504" d="m2.291209 1.62145c-.218614 0-.445457.185327-.495406.404768l-.726654 3.18909c-.0233425.102476-.00562598.197201.0499094.266799.0530157.0663071.135421.102866.232441.103028h.00068898l.00029134.00000394.602315-.00000394.166492-.166496c-.0915551-.142594-.155854-.29776-.191748-.462748l-.304996-.00000787c-.0433543 0-.0786063-.0352047-.0786063-.0785984v-.45472c0-.0433858.0352047-.0785906.0785906-.0785906l.304921-.00001575c.0359843-.163472.10135-.32137.191823-.462744l-.215713-.215764c-.014748-.0147362-.0229646-.0347913-.0229646-.0555315.00005512-.0208898.00818504-.0409449.0229331-.0556811l.321504-.321528c.014748-.0147402.034811-.0229173.055685-.0229173.0207717-.00000394.040811.00818898.0555551.0229291l.21578.215752c.142461-.0915787.297598-.155843.462724-.191732v-.305016c0-.0434016.0352087-.0785945.0786102-.0785945l.454736-.00000787c.0434173 0 .0785748.0352126.0785748.0786102l.0000315.305004c.163476.035878.32135.101398.462591.191874l.215933-.215902c.0147323-.0147402.034622-.0229173.0554961-.0229173.0208976-.00000394.040811.00818898.0555433.0229291l.321528.321504c.0307087.0307008.0307008.0805276-.00000787.111228l-.215728.215748c.0915709.142472.155949.297642.191854.462772l.304898-.00001575c.0435394 0 .0785669.0352244.0785669.078622l.00003543.454697c0 .0433976-.0351063.0786142-.0786417.0786142l-.304858-.00000787c-.0358661.163488-.101413.321386-.191886.462768l.1665.166488.137583-.00000394c.218492 0 .445256-.185315.495346-.404622l.726594-3.18924c.0233307-.102358.00555512-.197051-.0499961-.266787-.0529331-.0664724-.13578-.103031-.233079-.103031h-.326512-.00005512-.00005512l-3.14917-.00000787z" />
            <path id="_209566600" d="m3.83435 4.34943-.712075.712079c-.0154173.0154252-.0354961.0230709-.0555157.0230591-.0202087 0-.0403031-.00762992-.0557205-.0230512l-.200059-.200071c-.0306969-.0307047-.0307126-.0803701-.00000787-.111075.0307165-.0307087.0805236-.0307087.111232 0l.144555.144374.656535-.656547c.0307008-.0305709.0803465-.0305591.111055.00001181.0307441.030689.0306969.0805157 0 .11122zm-.511567-.507531c-.445598 0-.808071.362465-.808071.808031.0000315.445429.362449.807886.808024.807886.445449-.00001575.807882-.362457.807882-.807886.00000787-.445575-.362457-.80802-.807835-.808031z" />
            <path id="_209566408" d="m4.28783 4.64993c.00000787.532075-.433012.965098-.965047.965098-.532248 0-.965283-.433016-.965283-.965098.0000315-.53222.433004-.965228.965236-.965228.532098-.00001181.965094.433008.965094.965228zm-2.0051-1.25046-.210453.210437.206091.205921c.0270236.0270236.030685.069752.00843307.101-.110803.156252-.183126.330799-.215067.51885-.00639764.0377953-.0391614.0655039-.0775039.0655039l-.291087-.00001575v.297504h.291272c.038189 0 .0709055.0275748.0773189.065378.0321102.188047.104402.362594.215067.518846.0222756.0312441.0185669.0739685-.00844882.100988l-.206075.206063.210453.210283.205969-.205921c.0270157-.0270197.0696772-.0306969.100933-.00859055.156126.110811.330791.183138.518839.215209.037811.00641339.0655079.0391654.0655079.0775157v.291083h.297531v-.291224c0-.0383504.0275354-.0710945.0653307-.0775079.18811-.0319409.362602-.10426.518854-.215075.0312717-.0221142.0739646-.0185591.10098.00859843l.206083.205913.210331-.210283-.205976-.205937c-.0271378-.0271575-.0306969-.0698622-.00859449-.101114.110843-.156118.183138-.330661.215205-.518846.00642913-.0378031.0391693-.0653701.0775157-.0653701l.29111-.00000787v-.297504h-.291205c-.0383898 0-.0711378-.027689-.0775512-.0654882-.0318858-.188059-.10426-.362594-.215075-.51885-.0221024-.031252-.0185669-.0738268.00859449-.100984l.205976-.205937-.210331-.210437-.205913.206075c-.0271417.0270236-.0699094.0307087-.10115.00846457-.156094-.110681-.330661-.183004-.518854-.215071-.0377559-.00642126-.0653622-.0390315-.0653622-.077378l.0000315-.291228h-.297531v.29122c0 .0383543-.0276969.0709685-.0655079.0773858-.187878.0320669-.362587.104394-.518713.215209-.0312362.0221063-.0739646.0184213-.101114-.00860236l-.205913-.206075z" />
        </g>
    </g>
</svg>