<svg id="Layer_1" enable-background="new 0 0 3000 3000" height="512" stroke="white" fill="#1668BB" viewBox="0 0 3000 3000" width="512" xmlns="http://www.w3.org/2000/svg">
    <g transform="translate(-2248 -1124)">
        <g transform="matrix(1.046 0 0 1.046 -113.944 -61.493)">
            <g id="Icons">
                <path clip-rule="evenodd" d="m2559.292 3338.981c44.73-102.544-13.868-112.934-43.831-182.156-47.944-142.602-2.109-152.611 11.509-199.192 12.624-55.083-86.022-107.909-102.711-132.172-5.699-8.695-31.803-52.354-52.004-86.627-14.904-28.89-31.937-45.385-19.027-43.371 39.332-4.467 71.199 7.019 90.174-13.773 33.988-43.578 104.371-156.77 77.843-196.521-11.423-21.418-35.599-31.146-49.025-46.613-44.772-51.348 97.802-132.066 108.542-171.707 18.599-50.917-90.125-100.217-62.389-135.706 31.602-45.128 29.155-53.51 27.498-94.093 1.663-47.481-17.859-62.781-30.195-92.87-9.656-24.631-13.942-80.586-11.372-135.009 7.793-96.88 20.149-95.32 78.953-109.783 51.274-11.686 123.291-21.078 153.854-18.776 63.596 16.475 56.1 72.459 155.821 59.397 140.51-17.745 99.462-60.804 159.826-56.967 71.283.319 109.192 53.3 165.086 83.94 206.488 103.91 201.542-4.282 268.04 24.662 34.338 20.512 46.42 61.858 80.459 85.231 198.747 92.533 237.132-36.073 279.877 17.865 6.032 9.137 6.043 20.374 5.688 33.036-11.19 79.658 92.083 136.409 107.207 209.202 6.029 16.454 12.408 31.069 27.626 43.587 81.593 61.566 142.383-9.443 212.286-35.044 63.172-24.253 81.337 37.957 138.593 11.931 9.666-2.801 18.792-4.764 27.822-3.148 50.643 16.116 13.862 75.378-16.355 87.326-44.059 12.614-92.326-17.194-147-13.114-116.702 19.831-141.588 84.199-5.631 83.387 41.453 4.901 58.056 42.543 101.712 56.789 24.247 8.204 38.596 8.047 52.818 6.526 98.246-21.468 130.573 55.468 223.173 27.409 28.679-6.62 59.605-7.094 85.998 6.61 50.962 24.135 84.887 77.059 130.671 112.365 35.083 25.446 76.746 40.201 111.56 67.572 50.831 36.237 166.781 143.486 124.374 185.83-121.97 172.706-120.423 50.621-184.854 105.447-18.143 19.113-29.114 51.01-46.41 73.847-87.368 95.164-110.47-98.959-169.36-102.016-77.217-8.26-115.784 55.095-188.056 16.618-112.46-66.122-138.724-15.636-237.828-12.025-28.993 2.166-50.392-24.731-76.788-25.987-19.594.333-39.456 22.506-59.351 21.079-19.144-.634-35.405-6.867-52.516-14.493-106.905-55.653-188.069-29.932-256.036 65.775-72.87 96.763-124.665 89.665-227.302 86.956-75.432-6.863-123.858 42.858-143.529 23.923-42.081-47.852-4.417-88.653-5.293-137.573-.626-18.273-8.65-33.147-31.826-41.655-39.994-13.878-62.205 28.19-93.185 42.805-53.301 20.986-107.44-22.601-138.134 35.638-23.219 38.62-57.275 8.802-96.84 5.742-28.903-2.616-53.955 24.177-51.627 44.763.01 28.528 21.843 62.9 19.438 94.272-44.374 155.283-227.453 119.803-227.221 376.377-1.472 10.375-2.163 23.244-7.84 18.761-61.205-59.415-56.563-77.191-78.979-97.354-26.806-18.755-90.2-20.464-113.933-16.923z" fill-rule="evenodd" />
            </g>
        </g>
    </g>
</svg>