<svg id="Layer_1" enable-background="new 0 0 3000 3000" height="512" fill="white" viewBox="0 0 3000 3000" width="512" xmlns="http://www.w3.org/2000/svg">
    <g transform="translate(-2248 -1124)">
        <g transform="matrix(1.046 0 0 1.046 -113.944 -61.493)">
            <g id="Icons">
                <path clip-rule="evenodd" d="m2506.557 2946.228c-33.05 79.363-40.125 69.917-31.06 142.94 14.434 110.159 58.575 123.383 75.053 168.232 13.469 45.812-28.121 77.921-7.427 97.129 11.023 13.932 59.167.766 78.473 7.929 47.976 5.584 43.53 21.943 60.175 43.221 17.437 24.222 57.83 76.461 74.955 71.685 14.833-2.331 21.881-13.883 25.029-34.511 4.516-237.646 120.695-192.715 212.764-339.72 55.32-76.076-79.034-195.808 70.368-150.538 79.528 15.837 58.382-53.149 106.037-49.041 140.728 21.213 128.845-75.846 180.475-41.054 19.117 27.326-20.178 96.87-7.28 118.376 30.557 113.637 95.138 30.841 158.002 31.85 44.706-1.585 90.383 5.018 136.024-2.594 109.484-16.958 131.289-114.58 199.52-159.31 62.207-35.486 118.069-16.246 157.718 3.845 98.552 44.865 95.877.566 131.383-.862 77.201 42.766 105.347 21.708 173.787 8.406 97.208-26.048 134.217 64.898 220.397 36.458 29.59-7.247 55.406-23.07 85.766-25.274 64.806-5.511 60.76 130.953 147.153 128.494 76.295-3.197 81.973-110.536 119.781-114.26 75.177 14.612 81.575 3.605 135.167-53.39 31.833-38.073 54.204-65.585 49.894-90.89-20.118-86.21-138.589-172.606-185.695-200.092-95.372-45.317-110.64-85.225-160.646-126.288-95.002-76.731-138.854-21.859-198.562-32.122-189.456-70.493-104.741-14.918-207.838-37.148-14.433-4.458-21.842-10.238-31.019-16.987-74.086-65.355-97.345-29.854-145.817-50.169 85.437-62.877 143.134-5.769 210.441-14.262 61.102-5.826 108.435-103.562 37.295-132.014-10.029-3.511-19.444-3.488-30.843-1.795-60.606 22.209-65.376-10.054-109.32-14.991-89.214-6.844-155.439 114.931-241.007 40.863-7.241-7.773-10.41-15.835-14.188-25.395-25.993-86.557-90.667-116.553-107.865-180.202 9.801-113.612-53.866-104.676-131.955-67.297-43.886 8.724-105.356-2.166-148.843-19.81-17.622-6.294-30.642-21.266-41.035-35.4-91.496-134.294-118.56-19.624-216.671-41.861-36.811-8.996-74.242-25.554-111.398-43.702-47.373-28.664-82.699-67.865-134.893-79.773-21.932-5.075-52.644-7.364-75.544 2.052-15.972 6.202-22.975 21.263-38.529 29.526-51.588 21.304-133.214 36.698-165.215 3.159-23.741-19.584-46.639-43.045-78.438-41.729-77.71 1.079-177.767 20.755-210.302 38.73-53.234 34.861-41.527 187.719-30.375 241.42 1.759 14.3 18.334 40.233 29.233 64.343 21.293 108.21-24.437 94.34-28.595 142.846.559 51.214 101.868 92.915 57.179 130.486-198.577 179.753-68.514 168.956-44.462 226.174 4.551 53.385-57.895 134.579-73.071 160.711-24.205 30.854-151.615-26.333-86.444 72.13 21.156 35.992 54.792 92.211 63.021 105.028 20.591 28.236 83.384 57.194 99.247 106.448zm233.613-1242.657c81.745 59.378 79.466 66.813 171.295 56.678 147.147-25.659 86.268-67.76 164.637-52.172 48.777 11.17 81.848 50.626 126.681 75.98 180.81 89.204 189.674 40.309 266.997 24.396 34.39 18.522 47.072 60.665 78.557 82.929 53.328 37.279 143.636 45.909 193.198 39.64 21.886-1.913 48.849-21.074 74.915-26.718 28.16-8.954-4.929 67.397 37.704 110.398 51.8 66.981 73.663 93.586 92.09 149.605 34.619 67.544 117.978 74.803 168.174 48.767 183.56-110.581 114.465 4.845 237.14-36.393 41.637-4.835-1.763 61.58-47.086 43.906-198.441-61.381-307.688 102.333-141.579 111.317 20.376.758 34.032-.219 50.516 8.882 129.391 99.347 127.228 37.824 201.112 56.08 163.038 70.845 139.889 5.532 227.711 29.059 65.958 27.259 102.1 101.856 165.48 133.264 90.133 42.798 177.083 119.021 206.736 187.579 1.051 13.456-16.154 29.017-29.774 47.438-27.981 30.181-51.524 64.649-79.638 53.056-113.247-30.751-100.981 119.81-159.445 108.8-44.5-25.935-48.776-98.26-98.379-120.518-75.249-30.598-135.27 48.101-196.178 14.763-30.704-14.358-58.654-32.86-91.542-36.729-70.826-7.798-135.177 33.866-179.041 16.842-16.529-8.307-31.021-18.677-49.615-21.418-19.862-3.434-39.59 9.688-58.169 18.854-22.183 6.39-43.923-8.154-63.82-16.31-27.725-12.811-54.244-24.528-92.205-25.433-160.869.103-165.993 140.67-262.504 174.206-44.554 14.654-93.667 6.716-140.065 7.393-51.2-2.829-86.326 21.854-115.775 28.027-30.594-41.95 16.461-93.637.781-138.876-5.291-18.758-18.45-33.133-43.189-42.884-58.753-20.365-78.553 31.743-117.072 45.731-34.203 6.695-68.885-7.862-102.141 4.49-23.222 7.872-29.138 25.851-44.047 43.274-5.096 4.611-4.496 3.762-12.521 2.518-54.43-14.054-83.918-23.7-118.824 11.448-18.358 19.146-18.925 47.862-9.873 77.113 28.977 70.019 3.621 91.517-38.637 135.2-125.675 103.692-159.095 122.736-174.302 272.261-57.938-80.812-54.95-84.239-146.718-90.762 25.535-92.407-34.396-108.966-58.655-174.707-33.781-111.764-8.599-122.809 8.445-159.386 42.385-80.12-77.968-140.815-100.519-170.371-4.655-6.838-36.01-59.53-55.932-93.545 73.077 5.193 85.142-29.396 111.081-75.263 23.684-42.56 66.213-103.053 49.773-155.548-17.98-53.717-77.157-51.535-54.47-85.926 101.691-128.692 174.035-110.548 44.612-255.255 33.721-50.8 33.254-56.025 32.161-103.249 3.481-73.544-40.82-96.189-39.689-145.764-13.238-191.414 27.795-162.489 50.648-172.873 49.029-11.468 120.657-23.323 160.96-19.794z" fill-rule="evenodd" />
            </g>
        </g>
    </g>
</svg>