<svg id="Glyph" fill="white" enable-background="new 0 0 32 32" height="512" viewBox="0 0 32 32" width="512" xmlns="http://www.w3.org/2000/svg">
    <path d="m8.071 25.788-6.071 3.212v-10.5l3.478-1.56c.28-.126.607.029.687.326l2.154 7.95c.062.225-.042.463-.248.572z" />
    <path d="m28.194 18.703-8.298 4.493c-.914.495-1.985.615-2.985.334l-4.42-1.24-3.012 1.469-1.777-6.562 2.957-1.47c.94-.47 1.976-.715 3.027-.715h6.181c1.942 0 2.05 2.895.128 3.05l-2.306.189c-1 .082-.866 1.579.123 1.497l2.304-.191c1.286-.104 2.329-1.03 2.659-2.228l4.452-1.224c1.63-.446 2.487 1.873.967 2.598z" />
    <path d="m27.184 9h-17.184c-.552 0-1-.448-1-1s.448-1 1-1h17.184c-.112.314-.184.648-.184 1 0 .353.072.686.184 1z" />
    <path d="m7.75 8c0 1.103.897 2 2 2h18.75c.276 0 .5.224.5.5v.5c0 .276-.224.5-.5.5h-18.75c-1.93 0-3.5-1.57-3.5-3.5s1.57-3.5 3.5-3.5h18.75c.276 0 .5.224.5.5v.5c0 .276-.224.5-.5.5h-18.75c-1.103 0-2 .897-2 2z" />
</svg>