<svg viewBox="0 -16 511.99949 511" xmlns="http://www.w3.org/2000/svg" fill="white" stroke="white">
    <path d="m45.0625 349.6875c8.785156 8.785156 23.035156 8.785156 31.820312 0l5.300782-5.304688-31.820313-31.820312-5.300781 5.304688c-8.789062 8.785156-8.789062 23.03125 0 31.820312zm0 0" />
    <path d="m151.128906 455.753906c8.785156 8.785156 23.035156 8.785156 31.820313 0l5.304687-5.300781-31.820312-31.820313-5.304688 5.300782c-8.785156 8.785156-8.785156 23.03125 0 31.820312zm0 0" />
    <path d="m76.882812 423.933594c8.785157 8.785156 23.035157 8.785156 31.820313 0l26.515625-26.515625-31.820312-31.820313-26.515626 26.515625c-8.785156 8.785157-8.789062 23.03125 0 31.820313zm0 0" />
    <path d="m227.382812 178.066406-60.179687 60.179688c-17.546875 17.546875-46.09375 17.546875-63.640625 0s-17.546875-46.09375 0-63.640625l130.164062-130.164063c-14.074218-2.371094-28.320312-3.617187-42.554687-2.253906l-37.277344-37.28125c-5.863281-5.859375-15.351562-5.859375-21.214843 0l-128.28125 127.28125c-5.863282 5.863281-5.863282 15.351562 0 21.214844l38.269531 37.269531c-4.777344 49.292969 12.335937 97.191406 47.585937 132.441406l149.972656 149.613281c8.785157 8.785157 23.035157 8.785157 31.820313 0 8.789063-8.789062 8.789063-23.035156 0-31.820312l-85.894531-85.898438c-5.867188-5.867187-5.867188-15.382812 0-21.253906 5.847656-5.847656 15.328125-5.847656 21.171875 0l122 122c8.785156 8.785156 23.03125 8.785156 31.820312 0 8.785157-8.785156 8.785157-23.035156 0-31.820312l-122-122c-5.84375-5.847656-5.84375-15.324219 0-21.171875l.042969-.039063c5.847656-5.847656 15.328125-5.847656 21.171875 0l143.214844 143.210938c8.785156 8.785156 23.03125 8.789062 31.820312 0 8.785157-8.785156 8.785157-23.035156 0-31.820313l-143.214843-143.214843c-5.847657-5.84375-5.847657-15.324219 0-21.171876l.042968-.039062c5.847656-5.847656 15.324219-5.847656 21.171875 0l122 121.996094c8.785157 8.789062 23.03125 8.789062 31.820313 0 8.785156-8.785156 8.785156-23.03125 0-31.820313l-149.566406-149.5625c-26.894532 16.558594-60.117188 20.511719-90.265626 9.765625zm0 0" />
    <path d="m379.339844 4.898438c-5.863282-5.863282-15.351563-5.863282-21.214844 0l-37.269531 37.265624c-24.515625-2.371093-48.78125 6.355469-66.1875 23.765626l-129.890625 129.890624c-5.855469 5.851563-5.855469 15.359376 0 21.214844 5.851562 5.851563 15.359375 5.851563 21.210937 0l67.265625-67.269531c4.496094-4.492187 11.34375-5.664063 17.082032-2.929687 28.609374 13.671874 62.917968 7.789062 85.363281-14.65625 5.863281-5.863282 15.351562-5.863282 21.210937 0 4.398438 4.398437 5.496094 10.835937 3.296875 16.253906l117.71875 117.714844c9.5-23.84375 13.851563-49.648438 11.414063-75.476563l38.261718-37.277344c5.863282-5.863281 5.863282-15.351562 0-21.214843zm0 0" />
</svg>