<?xml version="1.0" encoding="utf-8"?>
<!-- Generator: Adobe Illustrator 26.3.0, SVG Export Plug-In . SVG Version: 6.00 Build 0)  -->
<svg version="1.1" id="Layer_1" xmlns="http://www.w3.org/2000/svg" xmlns:xlink="http://www.w3.org/1999/xlink" x="0px" y="0px"
	 viewBox="0 0 800 800" style="enable-background:new 0 0 800 800;" xml:space="preserve">
<style type="text/css">
	.st0{fill:#554C4B;}
</style>
<path class="st0" d="M344.84,323.73h206.69v60.73H403.78l0.8,33.25h119.08l0.4,56.95H404.18l0.4,52.17h249.7v63.72l-219.83,4.78
	c0,0-32.99-39.23-86.82-43.01L344.84,323.73z"/>
<path class="st0" d="M300.63,580.6c0,0,34.25-79.25,21.51-213.06c-5.64-59.22-22.18-132.83-41.82-223.02
	c0,0,194.74,60.93,319,218.04l10.16-9.56c0,0-91.4-104.54-234.77-176.23l1-29.87l-78.66-31.86l-1.19,22.3l-23.89-14.34L146.51,238.9
	c0,0,89.61,60.93,114.42,127.96C280.11,418.66,300.63,489.8,300.63,580.6z"/>
<path class="st0" d="M509.32,210.88l-50.94-23.76v-41.88l-69.1-42.18h-22.11V83.58h-6.57l-2.12,19.48h-31.59v25.12h1.66v-23.46
	h58.94v49.34l-27.72-12.93v33.94l0.52,0.21c0.76,0.3,76.37,30.94,151.01,94.11l1.48,1.25L509.32,210.88z M389.14,154.75v-49.82
	l67.57,41.25v40.17l-67.77-31.6H389.14z M361.42,173.96v-30.22l146.3,68.22l3.17,54.92C439.79,207.13,368.23,176.77,361.42,173.96z"
	/>
<path class="st0" d="M230.94,598.12l65.51-28.28c0,0,51.71-29.27,105.01,5.38s61.66,58.54,104.67,67.5s78.85-6.58,78.85-6.58
	s-67.25,60.59-132.39,38.84c-32.21-10.75-50.5-34.45-71.82-45.65C344.84,610.47,312.21,601.7,230.94,598.12z"/>
<path class="st0" d="M246.85,556.4l-1.3,0.07l0.25-0.86l-53.35-19.93c0-0.78,0.01-1.57,0.01-2.35l31.35-18.09l3.37,2.27l1.11-1.65
	l-1.8-1.21l9.5,0.19l-9.44-1.17l3.91-2.25l-0.99-1.72l-5.56,3.21l-30.41-20.47l13.67-21.38h-15.69
	c-0.48-14.58-1.19-29.11-2.27-43.38c-1.08,14.27-1.79,28.8-2.27,43.38h-17l16.42,21.88c-0.01,0.72-0.02,1.43-0.04,2.15l-29.63,17.1
	l-3.15-2.29l-1.17,1.61l2.43,1.77l-2.95,1.7l0.32,0.56l-5.67,1.19l6.03-0.57l0.31,0.54l1.19-0.69l4.01-0.38l27.9,20.29
	c0,0.28,0,0.56,0,0.84l-50.69,20.06l-2.52-0.18l-0.08,1.06l-1.54,1.88l56.21,46.01c0.46,10.87,1.05,21.69,1.86,32.36
	c1.89-24.73,2.66-50.22,3.01-75.43l51.77,0.65L246.85,556.4z M192.34,513.95l28.73,0.57l-28.6,16.5
	C192.43,525.37,192.39,519.67,192.34,513.95z M192.29,509.4c-0.06-4.91-0.12-9.83-0.21-14.76l0.34-0.54l27.91,18.78L192.29,509.4z
	 M204.14,472.7l-12.12,18.95c-0.12-6.31-0.29-12.63-0.49-18.95H204.14z M173.26,472.7h13.62c-0.19,5.84-0.34,11.69-0.46,17.54
	L173.26,472.7z M186.29,497.4c-0.06,3.67-0.12,7.33-0.16,10.98l-26.88,5.66l-0.8-0.58L186.29,497.4z M156.42,514.63l0.15-0.09
	l0.06,0.04L156.42,514.63z M161.05,515.34l25.03-2.37c-0.07,6.64-0.12,13.27-0.15,19.84c0,0.21,0,0.42,0,0.63L161.05,515.34z
	 M185.97,538.89c0.04,7.16,0.1,14.35,0.19,21.59l-46.32-3.33L185.97,538.89z M137.24,560.29l48.98,3.52
	c0.18,12.43,0.47,24.91,0.94,37.34L137.24,560.29z M192.42,541.7l46.68,15.11l-46.84,2.44C192.34,553.37,192.38,547.53,192.42,541.7
	z"/>
<path class="st0" d="M735.74,493.8c-15.93-36.64-19.12-49.38-72.48-54.96c-46.2-3.19-38.23-16.73-38.23-16.73
	s-2.39-13.54,24.69-11.95c27.08,1.59,79.65,1.59,79.65,1.59s11.22,0.21,11.22-10.35c0-14.14-0.46-56.15-0.46-56.15H586
	c0,0-25.06,0-28.28,58.14c-2.86,51.69-3.16,55.96,26.28,77.66c24.56,18.1,86.42,14.74,90.4,73.28s-28.28,122.26-91.6,138.59
	c-63.32,16.33-142.18-5.97-192.75-44.21c-50.58-38.23-165.47-47.19-165.47-47.19v-5.38l43.01-19.12l-74.67-172.04l-4.78,1.19
	L53.14,694.12c0,0,129.83-64.12,277.98-16.33c74.87,23.9,74.87,51.77,166.47,62.92c91.6,11.15,176.82-11.95,208.68-72.48
	C738.13,607.7,751.67,530.44,735.74,493.8z M192.93,599.73l-92,35.05l88.71-191.56l54.66,117.09L192.93,599.73z"/>
<g>
	<rect x="187.71" y="330.1" class="st0" width="1.66" height="54.36"/>
</g>
<g>
	<rect x="211.92" y="400.16" class="st0" width="38.53" height="1.66"/>
</g>
<g>
	
		<rect x="198.93" y="366.69" transform="matrix(0.679 -0.7341 0.7341 0.679 -199.6986 280.0001)" class="st0" width="42.8" height="3.32"/>
</g>
<g>
	
		<rect x="156.8" y="346.95" transform="matrix(0.7431 -0.6692 0.6692 0.7431 -205.7942 200.6826)" class="st0" width="3.32" height="42.8"/>
</g>
<g>
	
		<rect x="138.12" y="430.86" transform="matrix(0.7386 -0.6741 0.6741 0.7386 -250.6865 218.5038)" class="st0" width="36.6" height="3.32"/>
</g>
<g>
	
		<rect x="221.69" y="411.12" transform="matrix(0.659 -0.7522 0.7522 0.659 -247.6159 314.7995)" class="st0" width="3.32" height="38.71"/>
</g>
<g>
	<rect x="123.98" y="400.16" class="st0" width="36.87" height="1.66"/>
</g>
</svg>
